<svg width="47" height="46" viewBox="0 0 47 46" fill="none" xmlns="http://www.w3.org/2000/svg">
<g filter="url(#filter0_d_1_363)">
<rect x="3.5" y="3" width="40" height="40" rx="20" fill="white" shape-rendering="crispEdges"/>
<path d="M19.8937 14.6337C21.1866 13.1932 23.2033 12.6447 25.047 13.2324C26.891 13.8202 28.2199 15.4356 28.4416 17.3593C29.9174 17.3595 31.6654 18.2382 32.1486 20.875L32.9044 26.747C33.1943 28.7861 32.8159 30.3592 31.9377 31.4052C31.0591 32.4513 29.6183 32.9619 27.5451 32.9619H19.5421C17.9044 33.1674 16.2719 32.5383 15.1945 31.2871C14.1174 30.0359 13.7376 28.3283 14.1828 26.7382C14.2434 26.3183 14.6332 26.0272 15.0529 26.0878C15.4725 26.1486 15.7639 26.5381 15.7033 26.958C15.4288 28.1086 15.6688 29.3216 16.3615 30.2802C17.2127 31.0876 18.3631 31.5018 19.5334 31.4228H27.5451C29.1351 31.4228 30.2328 31.0889 30.8039 30.3945C31.3749 29.7001 31.6035 28.5402 31.3752 26.958L30.6291 21.1474C30.3655 19.7412 29.5483 18.8625 28.4416 18.8623H18.6369C17.5828 18.8623 16.7656 19.7411 16.4406 21.2089L16.2296 22.5009C16.1328 22.8957 15.7472 23.1485 15.3468 23.0791C14.9466 23.0095 14.6684 22.6416 14.7101 22.2373L14.9298 20.9189C15.5097 18.238 17.2225 17.3594 18.6369 17.3593H26.8771C26.7564 16.5804 26.3723 15.8658 25.7882 15.3369C24.4004 14.095 22.269 14.213 21.0265 15.6005V15.6884C20.8382 15.891 20.5558 15.9779 20.2863 15.916C20.017 15.8539 19.801 15.6529 19.7199 15.3886C19.6388 15.1242 19.7054 14.8363 19.8937 14.6337ZM20.5959 21.3496C20.7085 21.3233 20.826 21.3233 20.9386 21.3496C20.9968 21.3577 21.0533 21.3755 21.1056 21.4023C21.1596 21.4198 21.2102 21.4466 21.255 21.4814C21.3077 21.5118 21.3552 21.5503 21.3957 21.5957C21.4401 21.6313 21.4761 21.6763 21.5011 21.7275C21.5352 21.7743 21.5647 21.8243 21.589 21.8769L21.6418 22.0439C21.6465 22.1023 21.6465 22.1613 21.6418 22.2197C21.6418 22.7051 21.248 23.0986 20.7628 23.0986C20.5373 23.0907 20.323 22.9963 20.1652 22.8349C20.0822 22.7522 20.0172 22.6533 19.9728 22.5449C19.9308 22.4386 19.9099 22.3251 19.9113 22.2109C19.9022 22.1527 19.9022 22.0933 19.9113 22.0351C19.9194 21.977 19.9373 21.9204 19.964 21.8681C19.9728 21.8412 19.9831 21.8149 19.9962 21.79L20.088 21.6474C20.1057 21.6253 20.1254 21.6047 20.1476 21.5869C20.186 21.5454 20.2306 21.5098 20.2794 21.4814C20.3242 21.4467 20.375 21.4199 20.4289 21.4023C20.4811 21.3756 20.5377 21.3577 20.5959 21.3496ZM26.2101 21.3408C26.3225 21.3146 26.4395 21.3147 26.5519 21.3408C26.6664 21.3673 26.7765 21.4119 26.8771 21.4726C26.9669 21.5435 27.0469 21.6264 27.1144 21.7187C27.1525 21.7613 27.1797 21.8127 27.1935 21.8681C27.2202 21.9204 27.2381 21.977 27.2462 22.0351C27.2553 22.0933 27.2553 22.1527 27.2462 22.2109C27.2492 22.3261 27.2251 22.4406 27.1759 22.5449C27.1319 22.6582 27.0592 22.7581 26.965 22.8349C26.8029 23.0004 26.5823 23.0952 26.3507 23.0986C26.2335 23.0939 26.1176 23.0701 26.008 23.0283C25.8248 22.9194 25.6872 22.7476 25.6212 22.5449C25.5748 22.44 25.5537 22.3254 25.5597 22.2109C25.5508 22.1527 25.5508 22.0933 25.5597 22.0351V21.8681L25.6476 21.7187C25.6726 21.6676 25.7087 21.6225 25.7531 21.5869L25.8849 21.4726C25.9338 21.4394 25.9872 21.4127 26.0431 21.3935C26.0959 21.3681 26.1524 21.3503 26.2101 21.3408Z" fill="#333333"/>
</g>
<defs>
<filter id="filter0_d_1_363" x="0.5" y="0" width="46" height="46" filterUnits="userSpaceOnUse" color-interpolation-filters="sRGB">
<feFlood flood-opacity="0" result="BackgroundImageFix"/>
<feColorMatrix in="SourceAlpha" type="matrix" values="0 0 0 0 0 0 0 0 0 0 0 0 0 0 0 0 0 0 127 0" result="hardAlpha"/>
<feOffset/>
<feGaussianBlur stdDeviation="1.5"/>
<feComposite in2="hardAlpha" operator="out"/>
<feColorMatrix type="matrix" values="0 0 0 0 0 0 0 0 0 0 0 0 0 0 0 0 0 0 0.1 0"/>
<feBlend mode="normal" in2="BackgroundImageFix" result="effect1_dropShadow_1_363"/>
<feBlend mode="normal" in="SourceGraphic" in2="effect1_dropShadow_1_363" result="shape"/>
</filter>
</defs>
</svg>
